<svg xmlns="http://www.w3.org/2000/svg" width="148.76" height="30.05" viewBox="0 0 148.76 30.05">
  <title>NA-KD</title>
  <g id="Layer_2" data-name="Layer 2">
    <g id="Layer_1-2" data-name="Layer 1">
      <g id="Layer_217" data-name="Layer 217">
        <g>
          <polygon points="93.34 0 93.34 14.96 93.34 29.91 87.33 29.91 87.33 0 93.34 0"/>
          <polygon points="104.56 0 93.34 14.96 104.56 29.91 111.37 29.91 100.02 14.96 111.37 0 104.56 0"/>
          <polygon points="66.64 17.23 77.05 17.23 77.05 12.69 64.9 12.69 66.64 17.23"/>
          <polygon points="18.03 19.1 5.61 0 0 0 0 29.91 6.01 29.91 6.01 10.82 18.43 29.91 24.04 29.91 24.04 0 18.03 0 18.03 19.1"/>
          <path d="M133.81,0h-9.35V30.05h9.35a14.94,14.94,0,0,0,14.95-15A15,15,0,0,0,133.81,0Zm-.54,24.44h-2.8v-19h2.8a9.48,9.48,0,0,1,0,19Z"/>
          <polygon points="36.19 29.91 42.2 29.91 48.21 14.96 54.22 29.91 60.23 29.91 48.21 0 36.19 29.91"/>
        </g>
      </g>
    </g>
  </g>
</svg>
