<?xml version="1.0" encoding="utf-8"?>
<!-- Generator: Adobe Illustrator 22.1.0, SVG Export Plug-In . SVG Version: 6.00 Build 0)  -->
<svg version="1.1" id="Lager_1" xmlns="http://www.w3.org/2000/svg" xmlns:xlink="http://www.w3.org/1999/xlink" x="0px" y="0px"
	 viewBox="0 0 157.282 61.723" style="enable-background:new 0 0 157.282 61.723;" xml:space="preserve">
<style type="text/css">
	.st0{fill:#020203;}
	.st1{fill:#FFFFFF;}
</style>
<g>
	<circle class="st0" cx="78.821" cy="19.784" r="17.249"/>
	<g>
		<polygon class="st1" points="84.373,11.629 81.973,17.63 83.173,17.63 84.373,14.629 85.573,17.63 86.773,17.63 		"/>
		<g>
			<polygon class="st1" points="71.489,21.939 71.489,27.94 72.689,27.94 72.689,24.939 72.689,21.939 			"/>
			<polygon class="st1" points="76.29,21.939 74.94,21.939 72.689,24.939 74.94,27.94 76.29,27.94 74.039,24.939 			"/>
		</g>
		<g>
			<polygon class="st1" points="80.371,19.334 77.923,19.334 78.283,20.234 80.371,20.234 			"/>
		</g>
		<polygon class="st1" points="75.09,11.629 75.09,15.451 72.605,11.629 71.489,11.629 71.489,17.63 72.689,17.63 72.689,13.807 
			75.174,17.63 76.29,17.63 76.29,11.629 		"/>
		<path class="st1" d="M84.021,21.939h-1.865v6h1.865c1.657,0,3-1.343,3-3S85.678,21.939,84.021,21.939z M83.921,26.839h-0.565v-3.8
			h0.565c1.049,0,1.9,0.851,1.9,1.9C85.821,25.989,84.97,26.839,83.921,26.839z"/>
	</g>
</g>
<g>
	<path d="M32.733,52.849c0-3.485,2.584-5.864,5.813-5.864c2.227,0,3.621,1.07,4.505,2.396l-1.445,0.765
		c-0.595-0.952-1.717-1.648-3.06-1.648c-2.294,0-4.062,1.802-4.062,4.352c0,2.532,1.768,4.352,4.062,4.352
		c1.343,0,2.465-0.697,3.06-1.649l1.445,0.766c-0.901,1.325-2.278,2.396-4.505,2.396C35.317,58.713,32.733,56.333,32.733,52.849z"/>
	<path d="M48.908,47.171h1.7v9.842h5.151v1.496h-6.851V47.171z"/>
	<path d="M69.277,56.163h-5.559L62.8,58.509h-1.87l4.504-11.338h2.125l4.504,11.338h-1.87L69.277,56.163z M64.212,54.651h4.572
		l-2.294-6.001L64.212,54.651z"/>
	<path d="M77.923,55.603c0.765,0.85,1.989,1.598,3.57,1.598c1.836,0,2.481-0.936,2.481-1.751c0-1.19-1.291-1.53-2.736-1.904
		c-1.819-0.476-3.927-1.003-3.927-3.314c0-1.87,1.649-3.229,4.012-3.229c1.75,0,3.127,0.561,4.13,1.581l-0.986,1.258
		c-0.867-0.918-2.056-1.326-3.28-1.326c-1.258,0-2.125,0.646-2.125,1.598c0,1.021,1.224,1.343,2.635,1.7
		c1.852,0.493,4.011,1.071,4.011,3.484c0,1.768-1.224,3.417-4.284,3.417c-2.022,0-3.501-0.731-4.47-1.802L77.923,55.603z"/>
	<path d="M92,55.603c0.765,0.85,1.988,1.598,3.569,1.598c1.836,0,2.481-0.936,2.481-1.751c0-1.19-1.292-1.53-2.736-1.904
		c-1.818-0.476-3.927-1.003-3.927-3.314c0-1.87,1.649-3.229,4.012-3.229c1.751,0,3.128,0.561,4.131,1.581l-0.986,1.258
		c-0.867-0.918-2.057-1.326-3.28-1.326c-1.258,0-2.125,0.646-2.125,1.598c0,1.021,1.224,1.343,2.635,1.7
		c1.853,0.493,4.012,1.071,4.012,3.484c0,1.768-1.225,3.417-4.284,3.417c-2.022,0-3.501-0.731-4.47-1.802L92,55.603z"/>
	<path d="M105.942,47.171h1.7v11.338h-1.7V47.171z"/>
	<path d="M113.828,52.849c0-3.485,2.583-5.864,5.813-5.864c2.227,0,3.62,1.07,4.504,2.396l-1.444,0.765
		c-0.595-0.952-1.717-1.648-3.06-1.648c-2.295,0-4.062,1.802-4.062,4.352c0,2.532,1.768,4.352,4.062,4.352
		c1.343,0,2.465-0.697,3.06-1.649l1.444,0.766c-0.9,1.325-2.277,2.396-4.504,2.396C116.411,58.713,113.828,56.333,113.828,52.849z"
		/>
</g>
</svg>
