<?xml version="1.0" encoding="utf-8"?>
<!-- Generator: Adobe Illustrator 21.1.0, SVG Export Plug-In . SVG Version: 6.00 Build 0)  -->
<svg version="1.1" id="Lager_1" xmlns="http://www.w3.org/2000/svg" xmlns:xlink="http://www.w3.org/1999/xlink" x="0px" y="0px"
	 viewBox="0 0 157.282 61.723" style="enable-background:new 0 0 157.282 61.723;" xml:space="preserve">
<style type="text/css">
	.st0{fill:#FFFFFF;}
</style>
<g>
	<circle cx="78.742" cy="19.7" r="17.249"/>
	<g>
		<path d="M47.646,48.574h-3.519v-1.496h8.72v1.496h-3.501v9.842h-1.7V48.574z"/>
		<path d="M62.379,54.047h-2.125v4.369h-1.7V47.078h4.776c2.159,0,3.638,1.393,3.638,3.484c0,2.039-1.376,3.127-2.822,3.314
			l2.907,4.539h-1.972L62.379,54.047z M63.11,48.574h-2.856v3.977h2.856c1.224,0,2.108-0.799,2.108-1.988
			S64.334,48.574,63.11,48.574z"/>
		<path d="M73.219,47.078h7.615v1.496h-5.915v3.314h5.796v1.496h-5.796v3.535h5.915v1.496h-7.615V47.078z"/>
		<path d="M88.845,49.713v8.703h-1.7V47.078h1.751l6.17,8.498v-8.498h1.7v11.338h-1.648L88.845,49.713z"/>
		<path d="M103.526,47.078h4.046c3.535,0,5.881,2.414,5.881,5.678c0,3.279-2.346,5.66-5.881,5.66h-4.046V47.078z M107.572,56.92
			c2.617,0,4.13-1.869,4.13-4.164c0-2.33-1.461-4.182-4.13-4.182h-2.346v8.346H107.572z"/>
	</g>
	<g>
		<polygon class="st0" points="84.294,11.545 81.894,17.545 83.094,17.545 84.294,14.545 85.494,17.545 86.694,17.545 		"/>
		<g>
			<polygon class="st0" points="71.41,21.855 71.41,27.855 72.61,27.855 72.61,24.855 72.61,21.855 			"/>
			<polygon class="st0" points="76.211,21.855 74.86,21.855 72.61,24.855 74.86,27.855 76.211,27.855 73.96,24.855 			"/>
		</g>
		<g>
			<polygon class="st0" points="80.292,19.25 77.844,19.25 78.204,20.15 80.292,20.15 			"/>
		</g>
		<polygon class="st0" points="75.01,11.545 75.01,15.367 72.526,11.545 71.41,11.545 71.41,17.545 72.61,17.545 72.61,13.723 
			75.095,17.545 76.211,17.545 76.211,11.545 		"/>
		<path class="st0" d="M83.942,21.855h-1.865v6h1.865c1.657,0,3-1.343,3-3C86.942,23.198,85.599,21.855,83.942,21.855z
			 M83.842,26.755h-0.565v-3.8h0.565c1.049,0,1.9,0.851,1.9,1.9C85.742,25.904,84.891,26.755,83.842,26.755z"/>
	</g>
</g>
</svg>
