<?xml version="1.0" encoding="utf-8"?>
<!-- Generator: Adobe Illustrator 21.1.0, SVG Export Plug-In . SVG Version: 6.00 Build 0)  -->
<svg version="1.1" id="Lager_1" xmlns="http://www.w3.org/2000/svg" xmlns:xlink="http://www.w3.org/1999/xlink" x="0px" y="0px"
	 viewBox="0 0 157.282 61.723" style="enable-background:new 0 0 157.282 61.723;" xml:space="preserve">
<style type="text/css">
	.st0{fill:#020203;}
	.st1{fill:#FFFFFF;}
</style>
<g>
	<circle class="st0" cx="78.843" cy="19.577" r="17.249"/>
	<g>
		<path class="st0" d="M11.26,55.947H5.702l-0.918,2.346h-1.87l4.504-11.338h2.125l4.504,11.338h-1.87L11.26,55.947z M6.195,54.434
			h4.572l-2.294-6.001L6.195,54.434z"/>
		<path class="st0" d="M18.557,52.632c0-3.485,2.584-5.864,5.813-5.864c2.227,0,3.621,1.07,4.505,2.396l-1.445,0.765
			c-0.595-0.952-1.717-1.648-3.06-1.648c-2.294,0-4.062,1.802-4.062,4.352c0,2.532,1.768,4.352,4.062,4.352
			c1.343,0,2.465-0.697,3.06-1.649l1.445,0.766c-0.901,1.325-2.278,2.396-4.505,2.396C21.141,58.497,18.557,56.117,18.557,52.632z"
			/>
		<path class="st0" d="M33.943,52.632c0-3.485,2.584-5.864,5.813-5.864c2.227,0,3.62,1.07,4.505,2.396l-1.445,0.765
			c-0.595-0.952-1.717-1.648-3.06-1.648c-2.295,0-4.062,1.802-4.062,4.352c0,2.532,1.768,4.352,4.062,4.352
			c1.343,0,2.465-0.697,3.06-1.649l1.445,0.766c-0.901,1.325-2.278,2.396-4.505,2.396C36.527,58.497,33.943,56.117,33.943,52.632z"
			/>
		<path class="st0" d="M50.124,46.955h7.615v1.496h-5.916v3.314h5.797v1.496h-5.797v3.535h5.916v1.496h-7.615V46.955z"/>
		<path class="st0" d="M64.247,55.386c0.766,0.85,1.989,1.598,3.57,1.598c1.835,0,2.481-0.936,2.481-1.751
			c0-1.19-1.292-1.53-2.736-1.904c-1.819-0.476-3.927-1.003-3.927-3.314c0-1.87,1.648-3.229,4.012-3.229
			c1.75,0,3.127,0.561,4.13,1.581l-0.985,1.258c-0.867-0.918-2.057-1.326-3.281-1.326c-1.258,0-2.124,0.646-2.124,1.598
			c0,1.021,1.224,1.343,2.634,1.7c1.854,0.493,4.012,1.071,4.012,3.484c0,1.768-1.224,3.417-4.283,3.417
			c-2.022,0-3.502-0.731-4.471-1.802L64.247,55.386z"/>
		<path class="st0" d="M78.328,55.386c0.765,0.85,1.989,1.598,3.569,1.598c1.836,0,2.482-0.936,2.482-1.751
			c0-1.19-1.292-1.53-2.737-1.904c-1.818-0.476-3.927-1.003-3.927-3.314c0-1.87,1.649-3.229,4.012-3.229
			c1.751,0,3.128,0.561,4.131,1.581l-0.986,1.258c-0.866-0.918-2.057-1.326-3.28-1.326c-1.258,0-2.125,0.646-2.125,1.598
			c0,1.021,1.225,1.343,2.635,1.7c1.854,0.493,4.012,1.071,4.012,3.484c0,1.768-1.224,3.417-4.283,3.417
			c-2.023,0-3.502-0.731-4.471-1.802L78.328,55.386z"/>
		<path class="st0" d="M97.298,46.768c3.383,0,5.712,2.498,5.712,5.864c0,3.365-2.329,5.864-5.712,5.864s-5.711-2.499-5.711-5.864
			C91.587,49.266,93.915,46.768,97.298,46.768z M97.298,48.281c-2.431,0-3.96,1.853-3.96,4.352c0,2.481,1.529,4.352,3.96,4.352
			c2.396,0,3.961-1.87,3.961-4.352C101.259,50.133,99.694,48.281,97.298,48.281z"/>
		<path class="st0" d="M113.065,53.924h-2.124v4.368h-1.7V46.955h4.776c2.159,0,3.638,1.394,3.638,3.484
			c0,2.04-1.377,3.128-2.821,3.315l2.906,4.538h-1.972L113.065,53.924z M113.796,48.451h-2.855v3.978h2.855
			c1.224,0,2.107-0.799,2.107-1.989C115.903,49.249,115.02,48.451,113.796,48.451z"/>
		<path class="st0" d="M123.897,46.955h1.7v11.338h-1.7V46.955z"/>
		<path class="st0" d="M132.337,46.955h7.615v1.496h-5.915v3.314h5.796v1.496h-5.796v3.535h5.915v1.496h-7.615V46.955z"/>
		<path class="st0" d="M146.461,55.386c0.765,0.85,1.988,1.598,3.569,1.598c1.836,0,2.481-0.936,2.481-1.751
			c0-1.19-1.292-1.53-2.736-1.904c-1.819-0.476-3.927-1.003-3.927-3.314c0-1.87,1.648-3.229,4.012-3.229
			c1.751,0,3.128,0.561,4.131,1.581l-0.986,1.258c-0.867-0.918-2.057-1.326-3.28-1.326c-1.259,0-2.125,0.646-2.125,1.598
			c0,1.021,1.224,1.343,2.635,1.7c1.853,0.493,4.012,1.071,4.012,3.484c0,1.768-1.225,3.417-4.284,3.417
			c-2.022,0-3.501-0.731-4.471-1.802L146.461,55.386z"/>
	</g>
	<g>
		<polygon class="st1" points="84.396,11.422 81.996,17.422 83.196,17.422 84.396,14.422 85.596,17.422 86.796,17.422 		"/>
		<g>
			<polygon class="st1" points="71.512,21.732 71.512,27.732 72.712,27.732 72.712,24.732 72.712,21.732 			"/>
			<polygon class="st1" points="76.312,21.732 74.962,21.732 72.712,24.732 74.962,27.732 76.312,27.732 74.062,24.732 			"/>
		</g>
		<g>
			<polygon class="st1" points="80.394,19.127 77.946,19.127 78.306,20.027 80.394,20.027 			"/>
		</g>
		<polygon class="st1" points="75.112,11.422 75.112,15.244 72.628,11.422 71.512,11.422 71.512,17.422 72.712,17.422 72.712,13.6 
			75.197,17.422 76.312,17.422 76.312,11.422 		"/>
		<path class="st1" d="M84.044,21.732h-1.865v6h1.865c1.657,0,3-1.343,3-3C87.044,23.075,85.701,21.732,84.044,21.732z
			 M83.944,26.632h-0.565v-3.8h0.565c1.049,0,1.9,0.851,1.9,1.9C85.844,25.781,84.993,26.632,83.944,26.632z"/>
	</g>
</g>
</svg>
