<?xml version="1.0" encoding="utf-8"?>
<!-- Generator: Adobe Illustrator 21.1.0, SVG Export Plug-In . SVG Version: 6.00 Build 0)  -->
<svg version="1.1" id="Lager_1" xmlns="http://www.w3.org/2000/svg" xmlns:xlink="http://www.w3.org/1999/xlink" x="0px" y="0px"
	 viewBox="0 0 157.282 61.723" style="enable-background:new 0 0 157.282 61.723;" xml:space="preserve">
<style type="text/css">
	.st0{fill:#020203;}
	.st1{fill:#FFFFFF;}
</style>
<g>
	<circle class="st0" cx="78.821" cy="19.784" r="17.249"/>
	<g>
		<path class="st0" d="M48.031,47.162h5.32c2.023,0,3.196,1.241,3.196,2.89c0,1.428-0.935,2.38-1.972,2.601
			c1.207,0.188,2.193,1.411,2.193,2.788c0,1.785-1.19,3.06-3.281,3.06h-5.457V47.162z M53.029,51.973
			c1.139,0,1.768-0.714,1.768-1.648c0-0.936-0.629-1.666-1.768-1.666h-3.298v3.314H53.029z M53.114,57.004
			c1.19,0,1.904-0.68,1.904-1.784c0-0.936-0.646-1.751-1.904-1.751h-3.383v3.535H53.114z"/>
		<path class="st0" d="M70.006,56.154h-5.559L63.53,58.5h-1.87l4.504-11.338h2.125L72.794,58.5h-1.87L70.006,56.154z M64.941,54.642
			h4.572l-2.294-6.001L64.941,54.642z"/>
		<path class="st0" d="M78.658,55.594c0.765,0.85,1.989,1.598,3.569,1.598c1.836,0,2.482-0.936,2.482-1.751
			c0-1.19-1.292-1.53-2.737-1.904c-1.818-0.476-3.927-1.003-3.927-3.314c0-1.87,1.649-3.229,4.012-3.229
			c1.751,0,3.128,0.561,4.131,1.581l-0.986,1.258c-0.866-0.918-2.057-1.326-3.28-1.326c-1.258,0-2.125,0.646-2.125,1.598
			c0,1.021,1.225,1.343,2.635,1.7c1.854,0.493,4.012,1.071,4.012,3.484c0,1.768-1.224,3.417-4.283,3.417
			c-2.023,0-3.502-0.731-4.471-1.802L78.658,55.594z"/>
		<path class="st0" d="M92.606,47.162h1.7V58.5h-1.7V47.162z"/>
		<path class="st0" d="M100.495,52.84c0-3.485,2.583-5.864,5.813-5.864c2.227,0,3.62,1.07,4.504,2.396l-1.444,0.765
			c-0.595-0.952-1.717-1.648-3.06-1.648c-2.295,0-4.062,1.802-4.062,4.352c0,2.532,1.768,4.352,4.062,4.352
			c1.343,0,2.465-0.697,3.06-1.649l1.444,0.766c-0.9,1.325-2.277,2.396-4.504,2.396C103.078,58.704,100.495,56.324,100.495,52.84z"
			/>
	</g>
	<g>
		<polygon class="st1" points="84.373,11.629 81.973,17.63 83.173,17.63 84.373,14.629 85.573,17.63 86.773,17.63 		"/>
		<g>
			<polygon class="st1" points="71.489,21.939 71.489,27.94 72.689,27.94 72.689,24.939 72.689,21.939 			"/>
			<polygon class="st1" points="76.29,21.939 74.94,21.939 72.689,24.939 74.94,27.94 76.29,27.94 74.039,24.939 			"/>
		</g>
		<g>
			<polygon class="st1" points="80.371,19.334 77.923,19.334 78.283,20.234 80.371,20.234 			"/>
		</g>
		<polygon class="st1" points="75.09,11.629 75.09,15.451 72.605,11.629 71.489,11.629 71.489,17.63 72.689,17.63 72.689,13.807 
			75.174,17.63 76.29,17.63 76.29,11.629 		"/>
		<path class="st1" d="M84.021,21.939h-1.865v6h1.865c1.657,0,3-1.343,3-3C87.021,23.282,85.678,21.939,84.021,21.939z
			 M83.921,26.839h-0.565v-3.8h0.565c1.049,0,1.9,0.851,1.9,1.9C85.821,25.989,84.97,26.839,83.921,26.839z"/>
	</g>
</g>
</svg>
